<svg width="17" height="17" viewBox="0 0 17 17" fill="none" xmlns="http://www.w3.org/2000/svg">
<path d="M3.17822 17H13.8218C15.7202 17 16.7046 16.0156 16.7046 14.1436V3.44727C16.7046 1.56641 15.7202 0.59082 13.8218 0.59082H3.17822C1.27979 0.59082 0.29541 1.56641 0.29541 3.44727V14.1436C0.29541 16.0244 1.27979 17 3.17822 17ZM3.28369 15.2773C2.46631 15.2773 2.01807 14.8467 2.01807 13.9941V3.58789C2.01807 2.73535 2.46631 2.31348 3.28369 2.31348H13.7163C14.5249 2.31348 14.9819 2.73535 14.9819 3.58789V13.9941C14.9819 14.8467 14.5249 15.2773 13.7163 15.2773H3.28369ZM6.43018 4.96777C4.97998 4.96777 3.90771 6.0752 3.90771 7.63086C3.90771 10.0215 6.4917 12.1045 8.05615 13.0889C8.20557 13.1768 8.40771 13.291 8.53076 13.291C8.64502 13.291 8.82959 13.1768 8.97021 13.0889C10.5171 12.0869 13.1187 10.0215 13.1187 7.63086C13.1187 6.0752 12.0376 4.96777 10.5874 4.96777C9.65576 4.96777 8.92627 5.5127 8.51318 6.26855C8.09131 5.5127 7.37939 4.96777 6.43018 4.96777Z" fill="white"/>
</svg>
