<svg width="17" height="17" viewBox="0 0 17 17" fill="none" xmlns="http://www.w3.org/2000/svg">
<path d="M3.17822 16.4092H13.8218C15.7202 16.4092 16.7046 15.4248 16.7046 13.5527V2.85645C16.7046 0.975586 15.7202 0 13.8218 0H3.17822C1.27979 0 0.29541 0.975586 0.29541 2.85645V13.5527C0.29541 15.4336 1.27979 16.4092 3.17822 16.4092ZM3.28369 14.6865C2.46631 14.6865 2.01807 14.2559 2.01807 13.4033V2.99707C2.01807 2.14453 2.46631 1.72266 3.28369 1.72266H13.7163C14.5249 1.72266 14.9819 2.14453 14.9819 2.99707V13.4033C14.9819 14.2559 14.5249 14.6865 13.7163 14.6865H3.28369ZM6.43018 4.37695C4.97998 4.37695 3.90771 5.48438 3.90771 7.04004C3.90771 9.43066 6.4917 11.5137 8.05615 12.498C8.20557 12.5859 8.40771 12.7002 8.53076 12.7002C8.64502 12.7002 8.82959 12.5859 8.97021 12.498C10.5171 11.4961 13.1187 9.43066 13.1187 7.04004C13.1187 5.48438 12.0376 4.37695 10.5874 4.37695C9.65576 4.37695 8.92627 4.92188 8.51318 5.67773C8.09131 4.92188 7.37939 4.37695 6.43018 4.37695Z" fill="#A5A5A5"/>
</svg>
