<svg width="17" height="17" viewBox="0 0 17 17" fill="none" xmlns="http://www.w3.org/2000/svg">
<path d="M3.17822 16.4092H13.8218C15.7202 16.4092 16.7046 15.4248 16.7046 13.5527V2.85645C16.7046 0.975586 15.7202 0 13.8218 0H3.17822C1.27979 0 0.29541 0.975586 0.29541 2.85645V13.5527C0.29541 15.4336 1.27979 16.4092 3.17822 16.4092ZM3.28369 14.6865C2.46631 14.6865 2.01807 14.2559 2.01807 13.4033V2.99707C2.01807 2.14453 2.46631 1.72266 3.28369 1.72266H13.7163C14.5249 1.72266 14.9819 2.14453 14.9819 2.99707V13.4033C14.9819 14.2559 14.5249 14.6865 13.7163 14.6865H3.28369ZM6.85205 11.6543L11.9058 8.68359C12.2837 8.46387 12.2749 7.93652 11.9058 7.7168L6.85205 4.7373C6.47412 4.50879 5.96436 4.70215 5.96436 5.13281V11.2588C5.96436 11.6895 6.43896 11.9004 6.85205 11.6543Z" fill="#CEA2FF"/>
</svg>
