<svg width="17" height="17" viewBox="0 0 17 17" fill="none" xmlns="http://www.w3.org/2000/svg">
<path d="M3.17822 17H13.8218C15.7202 17 16.7046 16.0156 16.7046 14.1436V3.44727C16.7046 1.56641 15.7202 0.59082 13.8218 0.59082H3.17822C1.27979 0.59082 0.29541 1.56641 0.29541 3.44727V14.1436C0.29541 16.0244 1.27979 17 3.17822 17ZM3.28369 15.2773C2.46631 15.2773 2.01807 14.8467 2.01807 13.9941V3.58789C2.01807 2.73535 2.46631 2.31348 3.28369 2.31348H13.7163C14.5249 2.31348 14.9819 2.73535 14.9819 3.58789V13.9941C14.9819 14.8467 14.5249 15.2773 13.7163 15.2773H3.28369ZM6.85205 12.2451L11.9058 9.27441C12.2837 9.05469 12.2749 8.52734 11.9058 8.30762L6.85205 5.32812C6.47412 5.09961 5.96436 5.29297 5.96436 5.72363V11.8496C5.96436 12.2803 6.43896 12.4912 6.85205 12.2451Z" fill="white"/>
</svg>
