<svg width="21" height="20" viewBox="0 0 21 20" fill="none" xmlns="http://www.w3.org/2000/svg">
<path d="M14.7188 16L13.5938 11.1719L17.3438 7.9375L12.4219 7.51562L10.5 3.01562L8.57812 7.5625L3.65625 7.9375L7.40625 11.1719L6.28125 16L10.5 13.4688L14.7188 16ZM3.42188 2.96875C5.39062 1 7.75 0.015625 10.5 0.015625C13.25 0.015625 15.5938 1 17.5312 2.96875C19.5 4.90625 20.4844 7.25 20.4844 10C20.4844 12.75 19.5 15.1094 17.5312 17.0781C15.5938 19.0156 13.25 19.9844 10.5 19.9844C7.75 19.9844 5.39062 19.0156 3.42188 17.0781C1.48438 15.1094 0.515625 12.75 0.515625 10C0.515625 7.25 1.48438 4.90625 3.42188 2.96875Z" fill="#EBEBEB" fill-opacity="0.87"/>
</svg>
