<svg width="18" height="16" viewBox="0 0 18 16" fill="none" xmlns="http://www.w3.org/2000/svg">
<path d="M10.1929 14.2759L10.1938 14.2754C11.1693 13.6664 12.0999 12.9882 12.9784 12.2459C15.0116 10.5157 17 8.13157 17 5.45052C17 3.11087 15.0847 1.41666 13.1873 1.41666C11.6606 1.41666 10.4181 2.2222 9.64424 3.52055L8.99971 4.60185L8.35561 3.52029C7.58265 2.22235 6.33962 1.41666 4.81273 1.41666C2.91455 1.41666 1 3.11087 1 5.44972C1 8.13084 2.98767 10.5142 5.02197 12.247C6.17284 13.2195 7.41265 14.0817 8.72501 14.822L10.1929 14.2759ZM10.1929 14.2759C9.8138 14.5133 9.49725 14.6966 9.27473 14.8221C9.18464 14.8728 9.09299 14.9228 9.00035 14.9724M10.1929 14.2759L9.00035 14.9724M9.00035 14.9724C8.9082 14.9235 8.81665 14.8735 8.72575 14.8224L9.00035 14.9724Z" fill="#B370FF" stroke="#B370FF" stroke-width="1.5"/>
</svg>
