<svg width="18" height="17" viewBox="0 0 18 17" fill="none" xmlns="http://www.w3.org/2000/svg">
<path d="M9.94295 14.5716L9.94376 14.571C10.9193 13.9621 11.8499 13.2838 12.7284 12.5415C14.7616 10.8113 16.75 8.42717 16.75 5.74613C16.75 3.40648 14.8347 1.71227 12.9373 1.71227C11.4106 1.71227 10.1681 2.51781 9.39424 3.81616L8.74971 4.89746L8.10561 3.8159C7.33265 2.51796 6.08962 1.71227 4.56273 1.71227C2.66455 1.71227 0.75 3.40648 0.75 5.74533C0.75 8.42645 2.73767 10.8098 4.77197 12.5426C5.92284 13.5151 7.16265 14.3773 8.47501 15.1176L9.94295 14.5716ZM9.94295 14.5716C9.5638 14.8089 9.24725 14.9922 9.02473 15.1177C8.93464 15.1684 8.84299 15.2184 8.75035 15.268M9.94295 14.5716L8.75035 15.268M8.75035 15.268C8.6582 15.2191 8.56665 15.1691 8.47575 15.118L8.75035 15.268Z" stroke="#B370FF" stroke-width="1.5"/>
</svg>
